<svg width="44" height="45" viewBox="0 0 44 45" fill="none" xmlns="http://www.w3.org/2000/svg">
<path d="M22.8601 39.008H7.23706C6.24245 39.008 5.43668 38.2017 5.43668 37.2075V8.1883C5.43668 7.19383 6.24258 6.38794 7.23706 6.38794H36.2565C37.2507 6.38794 38.0568 7.19383 38.0568 8.1883V37.2075C38.0568 38.2019 37.2506 39.008 36.2565 39.008H27.9441V26.3757H32.1841L32.819 21.4527H27.9441V18.3097C27.9441 16.8843 28.3399 15.913 30.3838 15.913L32.9907 15.9119V11.5087C32.5398 11.4487 30.9923 11.3146 29.1919 11.3146C25.4334 11.3146 22.8601 13.6089 22.8601 17.8221V21.4527H18.6092V26.3757H22.8601V39.008Z" fill="white"/>
</svg>
