<svg width="47" height="47" viewBox="0 0 47 47" fill="none" xmlns="http://www.w3.org/2000/svg">
<path fill-rule="evenodd" clip-rule="evenodd" d="M23.264 5.81592C18.5253 5.81592 17.9312 5.836 16.0702 5.92092C14.213 6.00562 12.9447 6.3006 11.8349 6.73195C10.6875 7.17777 9.71447 7.77438 8.74442 8.74436C7.77444 9.71441 7.17783 10.6874 6.73201 11.8348C6.30066 12.9446 6.00568 14.213 5.92098 16.0701C5.83606 17.9311 5.81598 18.5253 5.81598 23.2639C5.81598 28.0024 5.83606 28.5966 5.92098 30.4576C6.00568 32.3148 6.30066 33.5831 6.73201 34.6929C7.17783 35.8403 7.77444 36.8133 8.74442 37.7834C9.71447 38.7534 10.6875 39.35 11.8349 39.7958C12.9447 40.2271 14.213 40.5221 16.0702 40.6068C17.9312 40.6917 18.5253 40.7118 23.264 40.7118C28.0025 40.7118 28.5967 40.6917 30.4577 40.6068C32.3148 40.5221 33.5832 40.2271 34.693 39.7958C35.8403 39.35 36.8134 38.7534 37.7834 37.7834C38.7534 36.8133 39.35 35.8403 39.7959 34.6929C40.2272 33.5831 40.5222 32.3148 40.6069 30.4576C40.6918 28.5966 40.7119 28.0024 40.7119 23.2639C40.7119 18.5253 40.6918 17.9311 40.6069 16.0701C40.5222 14.213 40.2272 12.9446 39.7959 11.8348C39.35 10.6874 38.7534 9.71441 37.7834 8.74436C36.8134 7.77438 35.8403 7.17777 34.693 6.73195C33.5832 6.3006 32.3148 6.00562 30.4577 5.92092C28.5967 5.836 28.0025 5.81592 23.264 5.81592ZM23.2641 8.95967C27.9228 8.95967 28.4747 8.97747 30.3145 9.06141C32.0157 9.13899 32.9395 9.42323 33.5543 9.66217C34.3688 9.97869 34.95 10.3568 35.5605 10.9674C36.1711 11.5779 36.5492 12.1591 36.8657 12.9736C37.1047 13.5884 37.3889 14.5122 37.4665 16.2134C37.5504 18.0532 37.5682 18.6051 37.5682 23.2639C37.5682 27.9226 37.5504 28.4745 37.4665 30.3143C37.3889 32.0155 37.1047 32.9393 36.8657 33.5541C36.5492 34.3686 36.1711 34.9498 35.5605 35.5603C34.95 36.1709 34.3688 36.549 33.5543 36.8655C32.9395 37.1045 32.0157 37.3887 30.3145 37.4663C28.475 37.5502 27.9232 37.568 23.2641 37.568C18.6049 37.568 18.0532 37.5502 16.2136 37.4663C14.5124 37.3887 13.5886 37.1045 12.9737 36.8655C12.1593 36.549 11.5781 36.1709 10.9676 35.5603C10.357 34.9498 9.97889 34.3686 9.66237 33.5541C9.42342 32.9393 9.13918 32.0155 9.06161 30.3143C8.97767 28.4745 8.95987 27.9226 8.95987 23.2639C8.95987 18.6051 8.97767 18.0532 9.06161 16.2134C9.13918 14.5122 9.42342 13.5884 9.66237 12.9736C9.97889 12.1591 10.357 11.5779 10.9676 10.9674C11.5781 10.3568 12.1593 9.97869 12.9737 9.66217C13.5886 9.42323 14.5124 9.13899 16.2136 9.06141C18.0534 8.97747 18.6053 8.95967 23.2641 8.95967ZM14.3041 23.264C14.3041 18.3156 18.3155 14.3043 23.2639 14.3043C28.2122 14.3043 32.2236 18.3156 32.2236 23.264C32.2236 28.2124 28.2122 32.2238 23.2639 32.2238C18.3155 32.2238 14.3041 28.2124 14.3041 23.264ZM23.264 29.0798C20.0518 29.0798 17.4479 26.4759 17.4479 23.2638C17.4479 20.0517 20.0518 17.4478 23.264 17.4478C26.476 17.4478 29.0799 20.0517 29.0799 23.2638C29.0799 26.4759 26.476 29.0798 23.264 29.0798ZM32.5777 16.0436C33.7341 16.0436 34.6715 15.1063 34.6715 13.9499C34.6715 12.7935 33.7341 11.8561 32.5777 11.8561C31.4214 11.8561 30.484 12.7935 30.484 13.9499C30.484 15.1063 31.4214 16.0436 32.5777 16.0436Z" fill="white"/>
</svg>
