<svg width="43" height="43" viewBox="0 0 43 43" fill="none" xmlns="http://www.w3.org/2000/svg">
<path d="M34.1312 8.7971C32.4883 7.1382 30.5318 5.82287 28.3755 4.92775C26.2192 4.03262 23.9063 3.57561 21.5716 3.58335C11.7891 3.58335 3.81619 11.5563 3.81619 21.3388C3.81619 24.4742 4.64035 27.52 6.18119 30.2075L3.67285 39.4167L13.0791 36.9442C15.677 38.3596 18.5974 39.1121 21.5716 39.1121C31.3541 39.1121 39.327 31.1392 39.327 21.3567C39.327 16.6088 37.4816 12.1475 34.1312 8.7971ZM21.5716 36.1021C18.9199 36.1021 16.322 35.3854 14.0466 34.0417L13.5091 33.7192L7.9191 35.1883L9.40619 29.7417L9.04785 29.1863C7.57429 26.8339 6.79201 24.1145 6.79035 21.3388C6.79035 13.2046 13.4195 6.57543 21.5537 6.57543C25.4954 6.57543 29.2041 8.11627 31.9812 10.9113C33.3565 12.2799 34.4464 13.9079 35.1876 15.701C35.9288 17.4941 36.3066 19.4165 36.2991 21.3567C36.3349 29.4908 29.7058 36.1021 21.5716 36.1021ZM29.6699 25.0654C29.222 24.8504 27.0362 23.7754 26.642 23.6142C26.2299 23.4708 25.9433 23.3992 25.6387 23.8292C25.3341 24.2771 24.492 25.2804 24.2412 25.5671C23.9904 25.8717 23.7216 25.9075 23.2737 25.6746C22.8258 25.4596 21.3924 24.9758 19.7083 23.4708C18.3824 22.2883 17.5045 20.8371 17.2358 20.3892C16.9849 19.9413 17.1999 19.7083 17.4329 19.4754C17.6299 19.2783 17.8808 18.9558 18.0958 18.705C18.3108 18.4542 18.4004 18.2571 18.5437 17.9704C18.687 17.6658 18.6154 17.415 18.5079 17.2C18.4004 16.985 17.5045 14.7992 17.1462 13.9033C16.7879 13.0433 16.4116 13.1508 16.1429 13.1329H15.2829C14.9783 13.1329 14.5124 13.2404 14.1004 13.6883C13.7062 14.1363 12.5595 15.2113 12.5595 17.3971C12.5595 19.5829 14.1541 21.6971 14.3691 21.9838C14.5841 22.2883 17.5045 26.7675 21.9479 28.6846C23.0049 29.1504 23.8291 29.4192 24.4741 29.6163C25.5312 29.9567 26.4987 29.9029 27.2691 29.7954C28.1291 29.67 29.9029 28.7204 30.2612 27.6813C30.6374 26.6421 30.6374 25.7642 30.512 25.5671C30.3866 25.37 30.1179 25.2804 29.6699 25.0654Z" fill="white"/>
</svg>
